<mxfile host="Electron" modified="2024-03-10T11:57:39.400Z" agent="Mozilla/5.0 (X11; Linux x86_64) AppleWebKit/537.36 (KHTML, like Gecko) draw.io/23.0.2 Chrome/120.0.6099.109 Electron/28.1.0 Safari/537.36" etag="BEvmHlEe9_5GqfzYehw9" version="23.0.2" type="device">
  <diagram name="Strona-1" id="3e3wuO1SaSbRrXoCvKfi">
    <mxGraphModel dx="1877" dy="634" grid="1" gridSize="10" guides="1" tooltips="1" connect="1" arrows="1" fold="1" page="1" pageScale="1" pageWidth="827" pageHeight="1169" math="0" shadow="0">
      <root>
        <mxCell id="0" />
        <mxCell id="1" parent="0" />
        <mxCell id="4g2LvVHuspSr59s5c5CJ-2" value="" style="points=[[0.25,0,0],[0.5,0,0],[0.75,0,0],[1,0.25,0],[1,0.5,0],[1,0.75,0],[0.75,1,0],[0.5,1,0],[0.25,1,0],[0,0.75,0],[0,0.5,0],[0,0.25,0]];rounded=1;arcSize=10;dashed=1;strokeColor=#82b366;fillColor=none;dashPattern=8 3 1 3;strokeWidth=2;whiteSpace=wrap;html=1;" parent="1" vertex="1">
          <mxGeometry x="40" y="120" width="160" height="400" as="geometry" />
        </mxCell>
        <mxCell id="4g2LvVHuspSr59s5c5CJ-3" value="" style="points=[[0.25,0,0],[0.5,0,0],[0.75,0,0],[1,0.25,0],[1,0.5,0],[1,0.75,0],[0.75,1,0],[0.5,1,0],[0.25,1,0],[0,0.75,0],[0,0.5,0],[0,0.25,0]];rounded=1;arcSize=10;dashed=1;strokeColor=#6c8ebf;fillColor=none;dashPattern=8 3 1 3;strokeWidth=2;whiteSpace=wrap;html=1;" parent="1" vertex="1">
          <mxGeometry x="430" y="120" width="560" height="400" as="geometry" />
        </mxCell>
        <mxCell id="4g2LvVHuspSr59s5c5CJ-5" value="Web App" style="rounded=1;whiteSpace=wrap;html=1;fillColor=#d5e8d4;strokeColor=#82b366;" parent="1" vertex="1">
          <mxGeometry x="60" y="240" width="120" height="60" as="geometry" />
        </mxCell>
        <mxCell id="4g2LvVHuspSr59s5c5CJ-6" value="Gnome-Online-Accounts" style="rounded=1;whiteSpace=wrap;html=1;fillColor=#d5e8d4;strokeColor=#82b366;" parent="1" vertex="1">
          <mxGeometry x="60" y="340" width="120" height="60" as="geometry" />
        </mxCell>
        <mxCell id="4g2LvVHuspSr59s5c5CJ-7" value="Hyper" style="ellipse;whiteSpace=wrap;html=1;aspect=fixed;fillColor=#fff2cc;strokeColor=#d6b656;" parent="1" vertex="1">
          <mxGeometry x="470" y="280" width="80" height="80" as="geometry" />
        </mxCell>
        <mxCell id="4g2LvVHuspSr59s5c5CJ-8" value="freeNGINX" style="shape=mxgraph.bpmn.conversation;perimeter=hexagonPerimeter2;whiteSpace=wrap;html=1;aspect=fixed;bpmnConversationType=conv;fillColor=#d5e8d4;strokeColor=#82b366;" parent="1" vertex="1">
          <mxGeometry x="270" y="275" width="105" height="90" as="geometry" />
        </mxCell>
        <mxCell id="4g2LvVHuspSr59s5c5CJ-9" value="" style="shape=image;verticalLabelPosition=bottom;labelBackgroundColor=default;verticalAlign=top;aspect=fixed;imageAspect=0;image=https://miro.medium.com/v2/resize:fit:700/1*6pdGag7cDTYOhJ6h9D2HHg.png;" parent="1" vertex="1">
          <mxGeometry x="250" y="640" width="700" height="379" as="geometry" />
        </mxCell>
        <mxCell id="4g2LvVHuspSr59s5c5CJ-10" value="" style="shape=image;verticalLabelPosition=bottom;labelBackgroundColor=default;verticalAlign=top;aspect=fixed;imageAspect=0;image=https://miro.medium.com/v2/resize:fit:720/format:webp/1*c6kMViSWEwXOAJVnVEE4nQ.png;" parent="1" vertex="1">
          <mxGeometry x="680" y="1090" width="720" height="399" as="geometry" />
        </mxCell>
        <mxCell id="4g2LvVHuspSr59s5c5CJ-11" value="" style="shape=image;verticalLabelPosition=bottom;labelBackgroundColor=default;verticalAlign=top;aspect=fixed;imageAspect=0;image=https://miro.medium.com/v2/resize:fit:700/1*WRqxJ3Jk7n4IEja0a36l8g.png;" parent="1" vertex="1">
          <mxGeometry x="-50" y="1060" width="700" height="316" as="geometry" />
        </mxCell>
        <mxCell id="4g2LvVHuspSr59s5c5CJ-13" value="Tresor" style="rounded=0;whiteSpace=wrap;html=1;fillColor=#f5f5f5;fontColor=#333333;strokeColor=#666666;" parent="1" vertex="1">
          <mxGeometry x="600" y="160" width="360" height="320" as="geometry" />
        </mxCell>
        <mxCell id="4g2LvVHuspSr59s5c5CJ-14" value="liberos-valut" style="shape=hexagon;perimeter=hexagonPerimeter2;whiteSpace=wrap;html=1;fixedSize=1;fillColor=#d0cee2;strokeColor=#56517e;verticalAlign=top;" parent="1" vertex="1">
          <mxGeometry x="630" y="360" width="210" height="100" as="geometry" />
        </mxCell>
        <mxCell id="4g2LvVHuspSr59s5c5CJ-12" value="dav-server-rs" style="shape=hexagon;perimeter=hexagonPerimeter2;whiteSpace=wrap;html=1;fixedSize=1;fillColor=#e1d5e7;strokeColor=#9673a6;" parent="1" vertex="1">
          <mxGeometry x="670" y="380" width="120" height="80" as="geometry" />
        </mxCell>
      </root>
    </mxGraphModel>
  </diagram>
</mxfile>
